<svg width="12" height="13" viewBox="0 0 12 13" fill="none" xmlns="http://www.w3.org/2000/svg">
<path d="M5.41699 9.41675H6.58366V5.91675H5.41699V9.41675ZM6.00033 4.75008C6.1656 4.75008 6.30415 4.69418 6.41595 4.58237C6.52776 4.47057 6.58366 4.33203 6.58366 4.16675C6.58366 4.00147 6.52776 3.86293 6.41595 3.75112C6.30415 3.63932 6.1656 3.58342 6.00033 3.58342C5.83505 3.58342 5.69651 3.63932 5.5847 3.75112C5.4729 3.86293 5.41699 4.00147 5.41699 4.16675C5.41699 4.33203 5.4729 4.47057 5.5847 4.58237C5.69651 4.69418 5.83505 4.75008 6.00033 4.75008ZM6.00033 12.3334C5.19338 12.3334 4.43505 12.1803 3.72533 11.874C3.0156 11.5678 2.39824 11.1522 1.87324 10.6272C1.34824 10.1022 0.932617 9.4848 0.626367 8.77508C0.320117 8.06536 0.166992 7.30703 0.166992 6.50008C0.166992 5.69314 0.320117 4.9348 0.626367 4.22508C0.932617 3.51536 1.34824 2.898 1.87324 2.373C2.39824 1.848 3.0156 1.43237 3.72533 1.12612C4.43505 0.819873 5.19338 0.666748 6.00033 0.666748C6.80727 0.666748 7.5656 0.819873 8.27533 1.12612C8.98505 1.43237 9.60241 1.848 10.1274 2.373C10.6524 2.898 11.068 3.51536 11.3743 4.22508C11.6805 4.9348 11.8337 5.69314 11.8337 6.50008C11.8337 7.30703 11.6805 8.06536 11.3743 8.77508C11.068 9.4848 10.6524 10.1022 10.1274 10.6272C9.60241 11.1522 8.98505 11.5678 8.27533 11.874C7.5656 12.1803 6.80727 12.3334 6.00033 12.3334ZM6.00033 11.1667C7.3031 11.1667 8.40658 10.7147 9.31074 9.8105C10.2149 8.90633 10.667 7.80286 10.667 6.50008C10.667 5.1973 10.2149 4.09383 9.31074 3.18967C8.40658 2.2855 7.3031 1.83341 6.00033 1.83341C4.69755 1.83341 3.59408 2.2855 2.68991 3.18967C1.78574 4.09383 1.33366 5.1973 1.33366 6.50008C1.33366 7.80286 1.78574 8.90633 2.68991 9.8105C3.59408 10.7147 4.69755 11.1667 6.00033 11.1667Z" fill="url(#paint0_linear_554_363)"/>
<defs>
<linearGradient id="paint0_linear_554_363" x1="0.166992" y1="6.50008" x2="11.8337" y2="6.50008" gradientUnits="userSpaceOnUse">
<stop stop-color="#FF7A21"/>
<stop offset="1" stop-color="#232199"/>
</linearGradient>
</defs>
</svg>
